<?xml version="1.0" encoding="utf-8"?>
<!-- Generator: Adobe Illustrator 16.0.0, SVG Export Plug-In . SVG Version: 6.00 Build 0)  -->
<!DOCTYPE svg PUBLIC "-//W3C//DTD SVG 1.1//EN" "http://www.w3.org/Graphics/SVG/1.1/DTD/svg11.dtd">
<svg version="1.1" id="Layer_1" xmlns="http://www.w3.org/2000/svg" xmlns:xlink="http://www.w3.org/1999/xlink" x="0px" y="0px"
	 width="67.178px" height="11.031px" viewBox="0 0 67.178 11.031" enable-background="new 0 0 67.178 11.031" xml:space="preserve">
<g>
	<path fill="#222222" d="M5.944,10.861L2,0.425h1.853l2.958,8.142l2.958-8.142h1.801L7.626,10.861H5.944z"/>
	<path fill="#222222" d="M13.815,2.074c-0.562,0-1.055-0.459-1.055-1.037S13.253,0,13.815,0c0.561,0,1.054,0.459,1.054,1.037
		S14.375,2.074,13.815,2.074z M14.665,10.861h-1.7V3.314h1.7V10.861z"/>
	<path fill="#222222" d="M22.995,8.516c-0.255,1.496-1.36,2.516-3.179,2.516c-2.107,0-3.569-1.598-3.569-3.926
		c0-2.262,1.479-3.961,3.535-3.961c2.125,0,3.281,1.513,3.281,3.723v0.611h-5.151c0.052,1.326,0.816,2.125,1.904,2.125
		c0.815,0,1.428-0.356,1.614-1.088H22.995z M17.963,6.238h3.416c-0.017-0.918-0.544-1.666-1.58-1.666
		C18.864,4.572,18.167,5.15,17.963,6.238z"/>
	<path fill="#222222" d="M31.239,8.669l1.462-5.354h1.649l-2.193,7.547h-1.699l-1.344-5.252l-1.343,5.252h-1.699l-2.193-7.547h1.7
		l1.462,5.354l1.326-5.354h1.547L31.239,8.669z"/>
	<path fill="#222222" d="M43.751,0.255c2.362,0,3.858,1.36,4.249,3.45h-1.733c-0.408-1.104-1.122-1.853-2.516-1.853
		c-1.836,0-2.958,1.599-2.958,3.791c0,2.176,1.104,3.79,2.958,3.79c1.394,0,2.107-0.748,2.516-1.869H48
		c-0.391,2.107-1.903,3.467-4.249,3.467c-2.687,0-4.743-2.176-4.743-5.388C39.008,2.431,41.065,0.255,43.751,0.255z"/>
	<path fill="#222222" d="M53.815,10.861v-0.424c-0.256,0.254-1.021,0.561-1.87,0.561c-1.547,0-2.822-0.918-2.822-2.465
		c0-1.428,1.275-2.432,2.941-2.432c0.68,0,1.444,0.238,1.751,0.459V5.949c0-0.765-0.477-1.359-1.445-1.359
		c-0.68,0-1.104,0.289-1.292,0.815h-1.632c0.221-1.292,1.411-2.261,2.958-2.261c1.903,0,3.026,1.055,3.026,2.771v4.945H53.815z
		 M53.815,8.227c-0.188-0.476-0.867-0.764-1.547-0.764c-0.766,0-1.564,0.322-1.564,1.07c0,0.765,0.799,1.088,1.564,1.088
		c0.68,0,1.359-0.289,1.547-0.766V8.227z"/>
	<path fill="#222222" d="M61.652,5.031c-0.238-0.17-0.646-0.255-1.004-0.255c-0.697,0-1.342,0.392-1.512,1.207v4.878h-1.701V3.314
		h1.701v0.782c0.289-0.562,0.951-0.952,1.682-0.952c0.375,0,0.715,0.068,0.834,0.137V5.031z"/>
	<path fill="#222222" d="M63.607,4.726h-1.189V3.314h1.189V1.292h1.699v2.022h1.701v1.411h-1.701v3.909
		c0,0.612,0.34,0.885,0.902,0.885c0.34,0,0.73-0.137,0.969-0.307v1.547c-0.289,0.17-0.748,0.271-1.275,0.271
		c-1.344,0-2.295-0.713-2.295-2.209V4.726z"/>
</g>
</svg>
